HIERARCHY
ROOT Hips
{
	OFFSET 0.000000 0.000000 0.000000 
	CHANNELS 6 Xposition Yposition Zposition Yrotation Zrotation Xrotation 
	JOINT Lumbar
	{
		OFFSET 0.000000 0.000000 0.000000 
		CHANNELS 3 Zrotation Xrotation Yrotation
		JOINT Neck
		{
			OFFSET 0.000000 0.445665 0.000000 
			CHANNELS 3 Zrotation Xrotation Yrotation
			End Site
			{
				OFFSET 0.000000 0.227535 0.000000 
			}
		}
		JOINT RightShoulder
		{
			OFFSET 0.019635 0.377685 0.194865 
			CHANNELS 3 Zrotation Xrotation Yrotation
			JOINT RightElbow
			{
				OFFSET 0.000000 -0.243375 0.000000 
				CHANNELS 2 Zrotation Yrotation
				JOINT RightWrist
				{
					OFFSET 0.000000 -0.264825 0.000000 
					CHANNELS 2 Zrotation Xrotation
					End Site
					{
						OFFSET 0.006600 -0.176220 0.000990 
					}
				}
			}
		}
		JOINT LeftShoulder
		{
			OFFSET 0.019635 0.377685 -0.194865 
			CHANNELS 3 Zrotation Xrotation Yrotation
			JOINT LeftElbow
			{
				OFFSET 0.000000 -0.243375 0.000000 
				CHANNELS 2 Zrotation Yrotation
				JOINT LeftWrist
				{
					OFFSET 0.000000 -0.264825 0.000000 
					CHANNELS 2 Zrotation Xrotation
					End Site
					{
						OFFSET 0.006600 -0.176220 -0.000990 
					}
				}
			}
		}
	}
	JOINT RightHip
	{
		OFFSET 0.052140 -0.069960 0.075570 
		CHANNELS 3 Zrotation Xrotation Yrotation
		JOINT RightKnee
		{
			OFFSET 0.000000 -0.402270 0.000000 
			CHANNELS 1 Zrotation
			JOINT RightAnkle
			{
				OFFSET 0.000000 -0.404085 0.000000 
				CHANNELS 3 Zrotation Xrotation Yrotation
				End Site
				{
					OFFSET 0.204105 -0.089430 0.008415 
				}
			}
		}
	}
	JOINT LeftHip
	{
		OFFSET 0.052140 -0.069960 -0.075570 
		CHANNELS 3 Zrotation Xrotation Yrotation
		JOINT LeftKnee
		{
			OFFSET 0.000000 -0.402270 0.000000 
			CHANNELS 1 Zrotation
			JOINT LeftAnkle
			{
				OFFSET 0.000000 -0.404085 0.000000 
				CHANNELS 3 Zrotation Xrotation Yrotation
				End Site
				{
					OFFSET 0.204105 -0.089430 -0.008415 
				}
			}
		}
	}
}
MOTION
Frames: 20
Frame Time: 0.02
0 0.95579 -1e-05 -425.01421 0 2.73966 5.24338 -2.77833 -0.33762 -8.87784 4.41957 1.09497 0.03648 -15.05453 -4.0319 9.99915 84.6552 2.3801 1.38094 10.19186 15.54901 -23.76683 11.79583 -98.28232 -19.19507 7.77727 5.68387 2.1625 10.41317 -23.97442 13.86179 -12.42693 -15.91988 4.14553 -5.79897 -10.20488 -16.48461 7.86847 7.8474 12.59514
-0.00205 0.95586 0.00275 -424.79657 0 2.63356 4.89085 -2.81132 -0.80245 -7.01053 5.09304 1.08213 -1.74156 -15.76194 -3.15769 10.18181 84.88113 2.32597 1.41202 8.98158 15.7783 -20.74966 11.55233 -98.7458 -19.51705 7.61384 5.37436 2.36527 10.05255 -23.55455 13.79744 -12.39773 -15.8292 4.1786 -5.5872 -10.59841 -16.7116 7.92868 7.88859 12.75909
-0.0041 0.95593 0.00552 -424.58193 0 2.52684 4.54207 -2.84249 -1.26234 -5.16464 5.76296 1.06942 -3.49662 -16.46658 -2.29074 10.36287 85.10523 2.27231 1.44343 7.7864 16.00437 -17.72853 11.30805 -99.18917 -19.82969 7.45169 5.06659 2.56876 9.69394 -23.13861 13.73298 -12.36834 -15.73861 4.21519 -5.37601 -10.98842 -16.94731 7.99054 7.93082 12.92308
-0.0061 0.95599 0.00832 -424.38031 0 2.42131 4.20756 -2.87181 -1.70628 -3.38971 6.42796 1.05842 -5.17696 -17.17016 -1.43861 10.53898 85.32481 2.22085 1.47669 6.64217 16.21556 -14.64809 11.05732 -99.5517 -20.1006 7.29622 4.76447 2.77243 9.34409 -22.73726 13.66792 -12.33783 -15.64865 4.25273 -5.16789 -11.36962 -17.19543 8.06007 7.9777 13.09034
-0.00829 0.95615 0.01092 -424.11357 0 2.31515 3.80075 -2.91705 -2.23384 -1.24321 7.12222 1.03994 -7.25279 -17.88305 -0.50122 10.74093 85.56903 2.15878 1.50042 5.23094 16.50051 -11.86491 10.83957 -100.33654 -20.58355 7.10912 4.43446 2.96954 8.95297 -22.2622 13.60662 -12.31317 -15.55675 4.26896 -4.94687 -11.7993 -17.34804 8.0897 8.0001 13.2421
-0.0101 0.95607 0.01395 -423.98221 0 2.20658 3.54501 -2.92442 -2.58461 0.11823 7.75174 1.03621 -8.49033 -18.57301 0.25036 10.88826 85.76043 2.11851 1.54412 4.38385 16.6326 -8.46733 10.55312 -100.23143 -20.62368 6.98653 4.16239 3.18409 8.64606 -21.94109 13.53701 -12.27623 -15.46809 4.34134 -4.75108 -12.12476 -17.72272 8.20317 8.07416 13.42523
-0.01081 0.95536 0.01827 -424.25654 0 2.12088 3.73335 -2.8588 -2.43403 -0.75399 8.23247 1.08416 -7.36158 -19.23979 0.53085 10.88174 85.80996 2.1455 1.6479 5.14422 16.30036 -3.1169 10.05473 -97.54038 -19.34394 7.06745 4.05994 3.42248 8.60053 -22.07196 13.44511 -12.20216 -15.39425 4.48426 -4.64201 -12.1704 -18.57326 8.56177 8.29749 13.71399
-0.01115 0.95441 0.02302 -424.66163 0 2.02757 4.06909 -2.74926 -2.1073 -2.40654 8.64347 1.1454 -5.39621 -19.87788 0.61751 10.82088 85.80558 2.1933 1.77121 6.46498 15.8203 2.81291 9.49042 -93.97164 -17.63293 7.2092 4.01393 3.68275 8.63447 -22.35321 13.3447 -12.1161 -15.32248 4.70017 -4.55566 -12.10879 -19.67368 9.00115 8.57104 14.03131
-0.01169 0.95354 0.02752 -424.98704 0 1.91795 4.32065 -2.63891 -1.86937 -3.66201 9.06662 1.193 -3.84354 -20.50242 0.76431 10.78648 85.8232 2.22692 1.88234 7.49923 15.43604 8.31749 8.97019 -90.88415 -16.18153 7.30635 3.93596 3.94972 8.61345 -22.54869 13.24747 -12.03767 -15.24591 4.93716 -4.44704 -12.09186 -20.75101 9.39742 8.81886 14.32344
-0.01209 0.95277 0.03224 -425.39947 0 1.89033 4.64632 -2.61539 -1.59416 -5.10126 9.56959 1.27112 -2.14764 -21.23457 1.02419 10.74355 85.85095 2.28017 2.00679 8.67133 14.9347 14.50374 8.39077 -87.44853 -14.46446 7.47386 3.88538 4.14828 8.67268 -22.81879 13.15267 -11.95048 -15.18582 4.94276 -4.38681 -12.09455 -21.44862 9.8279 9.08291 14.66674
-0.01268 0.95175 0.03659 -425.65978 0 1.69195 4.8507 -2.40166 -1.35522 -6.33729 9.89295 1.29079 -0.5591 -21.74141 1.00856 10.70684 85.8453 2.29787 2.1089 9.68502 14.6375 19.40914 7.91855 -84.53046 -13.19492 7.5108 3.79021 4.49217 8.58274 -22.96786 13.05136 -11.87811 -15.09165 5.45068 -4.23378 -12.02777 -22.99366 10.19725 9.32008 14.91064
-0.01398 0.95004 0.03983 -425.48509 0 1.00934 4.7012 -1.66539 -1.25496 -6.87125 9.70928 1.1286 0.59553 -21.58416 0.22843 10.68862 85.75662 2.20892 2.13837 10.16187 14.98021 20.6277 7.7617 -83.24734 -13.29518 7.15931 3.56638 5.25138 8.06999 -22.75817 12.92939 -11.85502 -14.90571 7.29937 -3.79712 -11.82198 -26.83539 10.45836 9.51518 14.86907
-0.01547 0.9481 0.04266 -425.15009 0 0.15875 4.42166 -0.74162 -1.19764 -7.16487 9.3519 0.91002 1.60128 -21.20956 -0.81227 10.6805 85.63699 2.08407 2.14599 10.45285 15.52647 20.53941 7.71436 -82.51696 -13.85533 6.67694 3.29432 6.15171 7.40341 -22.41993 12.80217 -11.8465 -14.68536 9.6544 -3.27083 -11.54482 -31.51286 10.64214 9.67422 14.72677
-0.01682 0.94629 0.04566 -424.87668 0 -0.60648 4.19004 0.09216 -1.12426 -7.53519 9.09327 0.72898 2.63039 -20.96751 -1.70065 10.67598 85.53415 1.97794 2.16744 10.80436 15.9526 21.0544 7.61474 -81.53935 -14.18627 6.26277 3.03873 6.97573 6.80086 -22.13159 12.68035 -11.82744 -14.47827 11.79877 -2.79925 -11.28319 -35.80263 10.80614 9.81938 14.63379
-0.01839 0.94437 0.04874 -424.6534 0 -1.41364 4.00947 0.95132 -1.03213 -8.06829 8.75114 0.49951 3.87335 -20.5849 -2.74066 10.63616 85.4178 1.86256 2.17243 11.27691 16.48812 21.54812 7.52347 -80.51446 -14.5876 5.81312 2.80753 7.8551 6.22332 -21.88149 12.54506 -11.82347 -14.27927 13.8717 -2.26745 -11.09004 -40.15566 11.1967 10.08994 14.52876
-0.01952 0.94264 0.05157 -424.28841 0 -2.16875 3.6914 1.79699 -0.98905 -8.19731 8.5394 0.35561 4.62761 -20.44002 -3.52202 10.67149 85.32309 1.75742 2.20712 11.44542 16.84868 21.77062 7.44163 -79.73067 -14.95702 5.40647 2.5141 8.64843 5.55937 -21.523 12.43725 -11.793 -14.05777 16.20255 -1.84202 -10.73767 -44.54552 11.10615 10.09528 14.42214
-0.01948 0.94145 0.05364 -423.54961 0 -2.77755 3.01108 2.59822 -1.0935 -7.24714 8.75754 0.47717 4.03932 -21.03702 -3.54291 10.92537 85.29491 1.69161 2.32101 10.82138 16.65445 21.54034 7.35987 -79.48291 -15.12926 5.14212 2.05309 9.20357 4.6664 -20.86349 12.402 -11.67477 -13.76038 19.20631 -1.71036 -9.97298 -49.05447 9.61759 9.33182 14.35648
-0.01896 0.94047 0.0555 -422.67737 0 -3.32092 2.19911 3.37183 -1.24273 -5.89958 9.10799 0.68426 2.96596 -21.87455 -3.29017 11.25264 85.29015 1.63709 2.46653 9.89504 16.28194 21.08384 7.284 -79.46224 -15.25507 4.92694 1.53186 9.66074 3.69688 -20.10456 12.39557 -11.53157 -13.44555 22.43418 -1.69261 -9.04985 -53.52551 7.66342 8.31075 14.28906
-0.01859 0.93943 0.05753 -421.87948 0 -3.86899 1.45569 4.13262 -1.35723 -4.74358 9.38044 0.84153 2.12938 -22.58134 -3.15033 11.53727 85.27526 1.57546 2.60338 9.10283 16.0061 20.74329 7.2052 -79.33828 -15.40202 4.69438 1.04334 10.14052 2.78004 -19.41244 12.37895 -11.40699 -13.15334 25.50592 -1.63721 -8.19249 -57.87155 5.98026 7.4372 14.20825
-0.01852 0.93822 0.05923 -421.01716 0 -4.52871 0.66975 5.00758 -1.53285 -3.53026 9.72278 1.04143 1.21787 -23.37236 -3.0684 11.85995 85.25645 1.51981 2.7172 8.31675 15.67115 20.30149 7.13122 -79.23291 -15.56447 4.4359 0.53216 10.71807 1.78123 -18.62557 12.34957 -11.25188 -12.79833 28.83201 -1.51994 -7.35627 -62.86153 4.04445 6.4344 14.18229
